<?xml version="1.0" encoding="UTF-8"?>
<svg width="50px" height="51px" viewBox="0 0 50 51" version="1.1" xmlns="http://www.w3.org/2000/svg" xmlns:xlink="http://www.w3.org/1999/xlink">
    <!-- Generator: Sketch 58 (84663) - https://sketch.com -->
    <title>加-hover@1x</title>
    <desc>Created with Sketch.</desc>
    <g id="小程序2.2" stroke="none" stroke-width="1" fill="none" fill-rule="evenodd">
        <g id="界面8.15-智能-场景控制-变频空调" transform="translate(-286.000000, -502.000000)">
            <g id="弹出框" transform="translate(10.000000, 413.000000)">
                <g id="信息展示" transform="translate(30.000000, 78.500000)">
                    <g id="编组-4" transform="translate(0.000000, 11.000000)">
                        <g id="加-hover" transform="translate(246.000000, 0.000000)">
                            <circle id="椭圆形" stroke="#E0E2E5" cx="25" cy="25" r="24.5"></circle>
                            <path d="M33.354044,24.094787 L25.9051915,24.094787 L25.9051915,16.6459537 C25.9051915,16.1460195 25.4999116,15.7407407 24.9999762,15.7407407 C24.5000408,15.7407407 24.094761,16.1460196 24.094761,16.6459537 L24.094761,24.094787 L16.645956,24.094787 C16.1460206,24.094787 15.7407407,24.5000659 15.7407407,25 C15.7407407,25.4999341 16.1460206,25.9052129 16.645956,25.9052129 L24.094761,25.9052129 L24.094761,33.3540463 C24.094761,33.8539805 24.5000408,34.2592593 24.9999762,34.2592593 C25.4999117,34.2592593 25.9051915,33.8539804 25.9051915,33.3540463 L25.9051915,25.9052129 L33.354044,25.9052129 C33.8539794,25.9052129 34.2592593,25.4999341 34.2592593,25 C34.2592593,24.5000659 33.8539794,24.094787 33.354044,24.094787 Z" id="路径" fill="#515768" fill-rule="nonzero" opacity="0.400000006"></path>
                        </g>
                    </g>
                </g>
            </g>
        </g>
    </g>
</svg>