<?xml version="1.0" encoding="UTF-8"?>
<svg width="50px" height="50px" viewBox="0 0 50 50" version="1.1" xmlns="http://www.w3.org/2000/svg" xmlns:xlink="http://www.w3.org/1999/xlink">
    <title>空调/2/默认/电辅热</title>
    <g id="空调/2/默认/电辅热" stroke="none" stroke-width="1" fill="none" fill-rule="evenodd">
        <g id="遥控电辅热" transform="translate(12.000000, 13.000000)" fill="#515768" fill-rule="nonzero">
            <path d="M27.125,13.2692308 L25.375,13.2692308 L25.375,7.96153847 L27.125,7.96153847 C27.65,7.96153847 28,7.60769231 28,7.0769231 C28,6.54615388 27.65,6.19230772 27.125,6.19230769 L25.375,6.19230769 L25.375,4.42307694 C25.375,1.94615388 23.45,0 21,0 C18.55,0 16.625,1.94615384 16.625,4.42307694 L16.625,6.19230769 L11.375,6.19230769 L11.375,4.42307694 C11.375,1.94615388 9.44999999,0 7,0 C4.55000001,0 2.62500001,1.94615384 2.62499997,4.42307694 L2.62499997,6.19230769 L0.874999991,6.19230769 C0.350000004,6.19230769 0,6.54615384 0,7.0769231 C0,7.60769235 0.350000004,7.96153847 0.874999991,7.96153847 L2.62499997,7.96153847 L2.62499997,13.2692308 L0.874999991,13.2692308 C0.350000004,13.2692308 0,13.6230769 0,14.1538462 C0,14.6846154 0.350000004,15.0384615 0.874999991,15.0384615 L2.62499997,15.0384615 L2.62499997,22.1153846 C2.62499997,22.6461538 2.97499998,23 3.5,23 C4.02500002,23 4.37499999,22.6461538 4.37499999,22.1153846 L4.37499999,15.0384615 L9.62500001,15.0384615 L9.62500001,18.5769231 C9.62500001,21.0538461 11.55,23 14,23 C16.45,23 18.375,21.0538462 18.375,18.5769231 L18.375,15.0384615 L23.625,15.0384615 L23.625,22.1153846 C23.625,22.6461538 23.975,23 24.5,23 C25.025,23 25.375,22.6461538 25.375,22.1153846 L25.375,15.0384615 L27.125,15.0384615 C27.65,15.0384615 28,14.6846154 28,14.1538462 C28,13.6230769 27.65,13.2692308 27.125,13.2692308 L27.125,13.2692308 Z M18.375,4.42307694 C18.375,2.9192308 19.5125,1.76923078 21,1.76923078 C22.4875,1.76923078 23.625,2.91923076 23.625,4.42307694 L23.625,6.19230769 L18.375,6.19230769 L18.375,4.42307694 Z M16.625,7.96153847 L16.625,13.2692308 L11.375,13.2692308 L11.375,7.96153847 L16.625,7.96153847 Z M4.37499999,4.42307694 C4.37499999,2.9192308 5.51249997,1.76923078 7,1.76923078 C8.48750003,1.76923078 9.62500001,2.91923076 9.62500001,4.42307694 L9.62500001,6.19230769 L4.37499999,6.19230769 L4.37499999,4.42307694 Z M4.37499999,13.2692308 L4.37499999,7.96153847 L9.62500001,7.96153847 L9.62500001,13.2692308 L4.37499999,13.2692308 Z M16.625,18.5769231 C16.625,20.0807692 15.4875,21.2307692 14,21.2307692 C12.5125,21.2307692 11.375,20.0807692 11.375,18.5769231 L11.375,15.0384615 L16.625,15.0384615 L16.625,18.5769231 Z M18.375,13.2692308 L18.375,7.96153847 L23.625,7.96153847 L23.625,13.2692308 L18.375,13.2692308 Z" id="形状"></path>
        </g>
        <circle id="椭圆形" stroke="#E0E2E5" cx="25" cy="25" r="24.5"></circle>
    </g>
</svg>