<?xml version="1.0" encoding="UTF-8"?>
<svg width="50px" height="50px" viewBox="0 0 50 50" version="1.1" xmlns="http://www.w3.org/2000/svg" xmlns:xlink="http://www.w3.org/1999/xlink">
    <!-- Generator: Sketch 58 (84663) - https://sketch.com -->
    <title>开关icon-已开机</title>
    <desc>Created with Sketch.</desc>
    <g id="接入品类-app" stroke="none" stroke-width="1" fill="none" fill-rule="evenodd">
        <g id="界面2.1电视-已静音" transform="translate(-301.000000, -75.000000)">
            <g id="开关icon-已开机" transform="translate(302.000000, 75.500000)">
                <g id="关机icon-默认" transform="translate(0.000000, 0.500000)">
                    <rect id="矩形" stroke="#F0EFF0" fill-opacity="0.4" fill="#000000" opacity="0.300000012" x="0" y="0" width="48" height="48" rx="24"></rect>
                    <path d="M23.3047031,13.7355601 C23.3305956,13.3220166 23.6700209,13 24.0800288,13 C24.4900367,13 24.829462,13.3220166 24.8553544,13.7355601 L24.8553544,23.9471158 C24.829462,24.3606593 24.4900367,24.6826759 24.0800288,24.6826759 C23.6700209,24.6826759 23.3305956,24.3606593 23.3047031,23.9471158 L23.3047031,13.7355601 Z M18.3519228,15.5534552 C18.7029306,15.3314686 19.1645865,15.4274059 19.4004506,15.7713512 C19.6363147,16.1152965 19.5631354,16.5858494 19.2342434,16.8400861 C16.1503768,18.9918883 14.8176666,22.9260825 15.949568,26.536531 C17.0814693,30.1469795 20.4127588,32.5876941 24.1600588,32.5520588 C27.9073588,32.5164235 31.1926144,30.0127882 32.2570917,26.3814531 C33.3215691,22.7501179 31.9158435,18.8419651 28.7924582,16.7491914 C28.5563512,16.5966869 28.4200369,16.3272968 28.4359077,16.0445611 C28.4517785,15.7618254 28.6173645,15.5097443 28.8690227,15.3852053 C29.1206809,15.2606664 29.4192475,15.2830506 29.6499683,15.4437546 C33.3409162,17.9171252 35.0020032,22.5356311 33.7440533,26.8269968 C32.4861034,31.1183625 28.6038444,34.0771548 24.1754406,34.119539 C19.7470367,34.1619232 15.8100282,31.277969 14.4718866,27.0114504 C13.133745,22.7449319 14.7079863,18.0954607 18.3519228,15.551888 L18.3519228,15.5534552 Z" id="形状" fill="#FFFFFF" fill-rule="nonzero"></path>
                </g>
            </g>
        </g>
    </g>
</svg>