<?xml version="1.0" encoding="UTF-8"?>
<svg width="50px" height="50px" viewBox="0 0 50 50" version="1.1" xmlns="http://www.w3.org/2000/svg" xmlns:xlink="http://www.w3.org/1999/xlink">
    <title>空调/2/默认/模式/自动</title>
    <g id="空调/2/默认/模式/自动" stroke="none" stroke-width="1" fill="none" fill-rule="evenodd">
        <g id="自动-默认">
            <circle id="椭圆形" stroke="#E0E2E5" cx="25" cy="25" r="24.5"></circle>
            <g id="编组" transform="translate(11.000000, 11.000000)">
                <circle id="椭圆形" stroke="#515768" stroke-width="1.5" cx="14" cy="14" r="13.25"></circle>
                <path d="M14.1107797,7.00023968 C14.1211767,6.99683008 14.2944595,7.03092594 14.2979251,7.03092594 C14.3048564,7.03092594 14.3152534,7.03433554 14.3221847,7.03433554 L14.3221847,7.03433554 C14.3360474,7.03433554 14.3464444,7.03774513 14.3533757,7.03774513 L14.3533757,7.03774513 C14.3672383,7.0411547 14.3741696,7.0411547 14.3845665,7.04456429 L14.3845665,7.04456429 C14.3984292,7.04797386 14.4088261,7.04797386 14.4157574,7.05138345 C14.4226888,7.05138345 14.4226888,7.05479305 14.4261544,7.05479305 C14.4330857,7.05820264 14.4400171,7.05820264 14.4469484,7.06161223 C14.450414,7.06161221 14.4538797,7.0650218 14.4573453,7.0650218 C14.4642766,7.0684314 14.4677423,7.06843142 14.4746736,7.07184099 C14.4816049,7.07525056 14.4885362,7.07866015 14.4920019,7.07866015 C14.4954676,7.08206972 14.5023989,7.08206972 14.5058645,7.08547931 L14.5058645,7.08547931 L14.5266584,7.09570809 C14.5301241,7.09570807 14.5301241,7.09911766 14.5335898,7.09911766 C14.5405211,7.10252725 14.550918,7.10934642 14.5578493,7.11275601 C14.561315,7.1161656 14.561315,7.1161656 14.5647807,7.1161656 C14.5751776,7.12298477 14.5855746,7.12639436 14.5925059,7.13321352 L14.5925059,7.13321352 C14.6029029,7.14344228 14.6132999,7.15026146 14.6236968,7.15708062 C14.661819,7.18435732 14.6999412,7.21845318 14.7345978,7.25595863 L14.7345978,7.25595863 L14.7484604,7.26959698 C14.7519261,7.26959696 14.7519261,7.27300655 14.7519261,7.27300655 L14.7519261,7.27300655 L14.7692544,7.29346408 C14.7796514,7.30369282 14.7865827,7.310512 14.7900483,7.32074076 C14.793514,7.32074076 14.793514,7.32415035 14.793514,7.32415035 C14.7969796,7.33096951 14.8039109,7.3377887 14.8073766,7.34801745 C14.8108422,7.34801745 14.8108422,7.34801745 14.8108422,7.35142705 L14.8108422,7.35142705 L14.8247049,7.37529415 C14.8247049,7.37870372 14.8281705,7.37870372 14.8281705,7.38211331 L14.8338022,7.39276827 L14.8338022,7.39276827 L14.8420331,7.40598042 L20.9311909,19.9600763 C21.0975424,20.3010349 20.9519848,20.7374619 20.6054192,20.901122 C20.5083808,20.9488562 20.4078768,21 20.3073728,21 C20.0509142,21 19.801387,20.9215795 19.6835547,20.6760893 L19.6835547,20.6760893 L17.7947721,16.9119063 L10.3401459,16.9119063 L8.30927145,20.6897277 C8.18797351,20.9249891 7.94537759,20.9352179 7.69238469,20.9352179 C7.58494932,20.9352179 7.47751398,20.9113508 7.37700997,20.860207 C7.03737568,20.6897277 6.9022151,20.2771678 7.0754979,19.9430283 L7.0754979,19.9430283 L13.6151909,7.39916123 C13.6221222,7.38552291 13.6255879,7.38211331 13.6290535,7.37188456 C13.6290535,7.36847496 13.6325192,7.36847496 13.6325192,7.36506537 C13.6359849,7.35483662 13.6429162,7.34801743 13.6463818,7.34119827 C13.6498475,7.34119829 13.6498475,7.3377887 13.6498475,7.3377887 L13.6498475,7.3377887 L13.6671757,7.31392159 C13.6706414,7.31392159 13.6706414,7.310512 13.6706414,7.310512 C13.6775727,7.30369284 13.684504,7.29687365 13.6914353,7.2866449 L13.6914353,7.2866449 C13.7087636,7.26277779 13.7260919,7.24232028 13.7434202,7.22527234 C13.7642141,7.20481483 13.7884737,7.18435732 13.8127333,7.16730938 C13.8231303,7.16049022 13.8300616,7.15367103 13.8404585,7.14685187 L13.8404585,7.14685187 C13.8508555,7.14003271 13.8577868,7.13662311 13.8681838,7.12980395 L13.8681838,7.12980395 C13.8785808,7.12298477 13.8855121,7.1161656 13.8959091,7.11275601 C13.8993747,7.11275601 13.8993747,7.10934642 13.9028404,7.10934642 C13.9132373,7.10593682 13.9201687,7.10252725 13.9271,7.09911766 L13.9271,7.09911766 C13.9340313,7.09911768 13.9340313,7.09570809 13.9374969,7.09570809 L13.9374969,7.09570809 L13.9582908,7.08547931 C13.9617565,7.08206974 13.9686878,7.08206974 13.9721535,7.07866015 C13.9790848,7.07525058 13.9860161,7.07525058 13.9894818,7.07184099 L13.9968463,7.0671528 L14.00681,7.0650218 C14.0102757,7.06502183 14.0137413,7.06161223 14.017207,7.06161223 C14.0241383,7.05820264 14.0310697,7.05820264 14.038001,7.05479305 C14.0414666,7.05138345 14.0449323,7.05138345 14.0483979,7.05138345 C14.0553292,7.04797386 14.0622606,7.04456429 14.0726575,7.0411547 L14.0726575,7.0411547 L14.0795888,7.03433554 L14.1038484,7.02069719 Z M14.1974211,9.40399785 L11.0506054,15.4560131 L17.1328318,15.4560131 L14.1974211,9.40399785 Z" id="形状结合" fill="#515768" fill-rule="nonzero"></path>
            </g>
        </g>
    </g>
</svg>