<?xml version="1.0" encoding="UTF-8"?>
<svg width="50px" height="50px" viewBox="0 0 50 50" version="1.1" xmlns="http://www.w3.org/2000/svg" xmlns:xlink="http://www.w3.org/1999/xlink">
    <title>空调/2/默认/定时</title>
    <g id="空调/2/默认/定时" stroke="none" stroke-width="1" fill="none" fill-rule="evenodd">
        <g id="预约">
            <circle id="椭圆形" stroke="#E0E2E5" cx="25" cy="25" r="24.5"></circle>
            <path d="M25,11 C26.8903382,11 28.7231884,11.368599 30.4512078,12.0990339 C32.1183575,12.8024155 33.6164251,13.8135266 34.9014493,15.0985507 C36.1864734,16.3835749 37.1942029,17.8816425 37.9009662,19.5487923 C38.631401,21.2768116 39,23.1096619 39,25 C39,26.8903381 38.631401,28.7231884 37.9009661,30.4512078 C37.1975845,32.1183575 36.1864734,33.6164252 34.9014493,34.9014493 C33.6164251,36.1864734 32.1183575,37.1942029 30.4512077,37.9009662 C28.7231884,38.631401 26.8903382,39 25,39 C23.1096618,39 21.2768116,38.631401 19.5487922,37.9009661 C17.8816425,37.1975845 16.3835749,36.1864734 15.0985507,34.9014493 C13.8135266,33.6164251 12.8057971,32.1183575 12.0990338,30.4512077 C11.368599,28.7231884 11,26.8903382 11,25 C11,23.1096618 11.368599,21.2768116 12.0990339,19.5487922 C12.8024155,17.8816425 13.8135266,16.3835749 15.0985507,15.0985507 C16.3835749,13.8135266 17.8816425,12.8057971 19.5487923,12.0990338 C21.2768116,11.368599 23.1096618,11 25,11 Z M25,12.4879227 C18.1014493,12.4879227 12.4879227,18.1014493 12.4879227,25 C12.4879227,31.8985507 18.1014493,37.5120773 25,37.5120773 C31.8985507,37.5120773 37.5120773,31.8985507 37.5120773,25 C37.5120773,18.1014493 31.8985507,12.4879227 25,12.4879227 Z M24.120773,19.1497584 L24.2261072,19.1565202 C24.6405854,19.2100477 24.9661836,19.5745448 24.9661836,20.005314 L24.9661836,20.005314 L24.9661836,26.589372 L29.6429952,26.589372 C30.1096618,26.589372 30.4884058,26.9714976 30.4884058,27.4347826 L30.4884058,27.4347826 L30.4818149,27.5401168 C30.4296173,27.9545951 30.0737644,28.2801932 29.6429952,28.2801932 L29.6429952,28.2801932 L24.2560387,28.2801932 C24.2120773,28.2869565 24.1681159,28.2801932 24.120773,28.2801932 L24.120773,28.2801932 L24.0147738,28.2737732 C23.5980791,28.2229054 23.2753623,27.8756967 23.2753623,27.4449275 L23.2753623,27.4449275 L23.2753623,20.005314 C23.2753623,19.542029 23.6541063,19.1497584 24.120773,19.1497584 L24.120773,19.1497584 Z" id="形状结合" fill="#515768" fill-rule="nonzero"></path>
        </g>
    </g>
</svg>