<?xml version="1.0" encoding="UTF-8"?>
<svg width="50px" height="50px" viewBox="0 0 50 50" version="1.1" xmlns="http://www.w3.org/2000/svg" xmlns:xlink="http://www.w3.org/1999/xlink">
    <title>空调/2/默认/摆风/上下风</title>
    <g id="空调/2/默认/摆风/上下风" stroke="none" stroke-width="1" fill="none" fill-rule="evenodd">
        <g id="上下风-默认">
            <circle id="椭圆形" stroke="#E0E2E5" cx="25" cy="25" r="24.5"></circle>
            <g id="编组" transform="translate(14.500000, 12.500000)" fill="#515768" fill-rule="nonzero">
                <path d="M21.6933036,6.98122066 L3.07544643,6.98122066 L3.07544643,3.8990577 C3.07544643,3.75351111 2.99129464,3.61652609 2.8578125,3.54803358 C2.72433036,3.47668722 2.56763393,3.48524878 2.43995536,3.57086442 L-3.32299107,7.44925281 C-3.43035714,7.52059918 -3.5,7.64616878 -3.5,7.77744609 C-3.5,7.9087234 -3.43325893,8.03143915 -3.32589286,8.10563937 L2.43705357,11.9840278 C2.50379464,12.0325433 2.58504464,12.0553741 2.66629464,12.0553741 C2.73013393,12.0553741 2.796875,12.038251 2.85491071,12.0068586 C2.98839286,11.9412199 3.07254464,11.8042349 3.07254464,11.6558345 L3.07254464,8.57081767 L21.6904018,8.57081767 C22.1401786,8.57081767 22.5,8.21408585 22.5,7.77459224 C22.5,7.33795249 22.1401786,6.98122066 21.6933036,6.98122066 Z M22.3258929,17.8886529 L16.5629464,14.0102645 C16.4962054,13.9646029 16.4178571,13.9446259 16.3366071,13.9446259 C16.2698661,13.9446259 16.2118304,13.961749 16.1450893,13.9931414 C16.0116071,14.0587801 15.9303571,14.1929112 15.9303571,14.3441655 L15.9303571,17.4263285 L-2.69040179,17.4263285 C-3.14017857,17.4234746 -3.5,17.7773526 -3.5,18.2197001 C-3.5,18.6649014 -3.14017857,19.0159255 -2.69040179,19.0159255 L15.9274554,19.0159255 L15.9274554,22.1009423 C15.9274554,22.2550504 16.0087054,22.3863278 16.1363839,22.4519664 C16.2698661,22.5233128 16.4294643,22.5147512 16.5571429,22.4291356 L22.3171875,18.5507472 C22.4274554,18.476547 22.497193,18.3509774 22.497193,18.2197001 C22.5,18.0855689 22.4361607,17.965707 22.3258929,17.8886529 Z" id="形状" transform="translate(9.500000, 13.000000) rotate(90.000000) translate(-9.500000, -13.000000) "></path>
            </g>
        </g>
    </g>
</svg>