<?xml version="1.0" encoding="UTF-8"?>
<svg width="50px" height="50px" viewBox="0 0 50 50" version="1.1" xmlns="http://www.w3.org/2000/svg" xmlns:xlink="http://www.w3.org/1999/xlink">
    <title>空调/2/默认/风速/静音风</title>
    <g id="空调/2/默认/风速/静音风" stroke="none" stroke-width="1" fill="none" fill-rule="evenodd">
        <g id="静音icon-默认">
            <circle id="椭圆形" stroke="#E0E2E5" cx="25" cy="25" r="24.5"></circle>
            <g id="编组" transform="translate(12.595238, 14.285714)" fill="#515768" fill-rule="nonzero">
                <path d="M13.9821029,0.136358857 C13.3562373,-0.113594968 12.6904229,-0.0215067168 12.1977203,0.425779075 L5.49962714,6.38520448 L2.50346224,6.38520448 C1.13188452,6.38520448 0,7.49026349 0,8.84527633 L0,13.7785755 C0,15.1335883 1.11856823,16.2518028 2.50346224,16.2518028 L5.49962714,16.2518028 L12.1977203,22.2112282 C12.5306275,22.461182 12.9034835,22.6190476 13.3162885,22.6190476 C13.5293491,22.6190476 13.7690423,22.5795812 13.9821029,22.5006484 C14.6079685,22.2112282 14.9808245,21.6323878 14.9808245,20.9746146 L14.9808245,1.64923727 C14.9808245,0.991464047 14.6079685,0.41262361 13.9821029,0.136358857 L13.9821029,0.136358857 Z M13.3162885,20.9746146 L6.3651859,14.8047017 C6.2453393,14.6863025 6.03227868,14.5942143 5.81921807,14.5942143 L2.49014595,14.5942143 C2.03739214,14.5942143 1.66453606,14.2258613 1.66453606,13.7785755 L1.66453606,8.84527633 C1.66453606,8.39799054 2.03739214,8.02963753 2.49014595,8.02963753 L5.81921807,8.02963753 C6.03227868,8.02963753 6.23202301,7.95070475 6.3651859,7.8191501 L13.3162885,1.64923727 L13.3162885,20.9746146 L13.3162885,20.9746146 Z M22.2261638,11.3053482 L24.5698306,8.98998644 C24.8894215,8.67425529 24.8894215,8.14803671 24.5698306,7.83230557 C24.2502397,7.51657442 23.7175882,7.51657442 23.3979972,7.83230557 L21.0543305,10.1476673 L18.7106637,7.83230557 C18.3910728,7.51657442 17.8584212,7.51657442 17.5388303,7.83230557 C17.2192394,8.14803671 17.2192394,8.67425529 17.5388303,8.98998644 L19.8824971,11.3053482 L17.5388303,13.6207099 C17.2192394,13.9364411 17.2192394,14.4626597 17.5388303,14.7783908 C17.6986258,14.9362564 17.9116864,15.0151892 18.124747,15.0151892 C18.3378076,15.0151892 18.5508682,14.9362564 18.7106637,14.7783908 L21.0543305,12.4630291 L23.3979972,14.7783908 C23.5577927,14.9362564 23.7708533,15.0151892 23.9839139,15.0151892 C24.1969745,15.0151892 24.4100352,14.9362564 24.5698306,14.7783908 C24.8894215,14.4626597 24.8894215,13.9364411 24.5698306,13.6207099 L22.2261638,11.3053482 Z" id="形状"></path>
            </g>
        </g>
    </g>
</svg>