<?xml version="1.0" encoding="UTF-8"?>
<svg width="50px" height="50px" viewBox="0 0 50 50" version="1.1" xmlns="http://www.w3.org/2000/svg" xmlns:xlink="http://www.w3.org/1999/xlink">
    <title>空调/2/默认/风速/风速低</title>
    <g id="空调/2/默认/风速/风速低" stroke="none" stroke-width="1" fill="none" fill-rule="evenodd">
        <g id="风速低-默认">
            <circle id="椭圆形" stroke="#E0E2E5" cx="25" cy="25" r="24.5"></circle>
            <g id="编组" transform="translate(11.000000, 13.000000)" fill-rule="nonzero" stroke="#515768" stroke-width="1.5">
                <path d="M13.3217892,14.6828724 C13.5428357,13.0279299 15.3257087,13.2704434 16.2182605,13.914208 C18.3507735,15.4750575 20.0129652,18.1802077 20.46879,19.3652814 C20.9740655,20.6683188 20.5396038,21.8338773 20.1787429,22.2133129 C17.0795908,25.4692872 11.868033,25.2024154 10.0899342,24.4792999 C8.72030009,23.9025848 8.94040578,22.6619617 10.3246062,21.2840333 C12.1702067,19.4467955 13.0557877,16.6728527 13.3217892,14.6828724 Z M2.91937289,1.22589312 C4.06481644,0.318931766 5.12993449,1.0850433 5.80182501,2.89318501 C6.69216218,5.30673138 8.89775287,7.34000415 10.642615,8.49165247 C12.0991735,9.44074661 11.0806529,10.8389719 10.0733884,11.304638 C7.6578117,12.4008426 4.38481169,12.5476853 3.07271744,12.3988592 C1.62095819,12.2157138 0.740422482,11.3134781 0.543463972,10.8256412 C-1.12462916,6.69144065 1.44402159,2.3910779 2.91937289,1.22589312 Z M19.8260438,0.93063752 C20.8336497,-0.0469613956 22.0617955,-0.1013316 22.5610011,0.0848127063 C26.7657233,1.65980625 28.5619648,6.55799254 28.5799311,8.48399107 C28.5898012,9.9667333 27.3595721,10.2578086 25.5559127,9.51869187 C23.1491733,8.53432054 20.2441409,8.80635782 18.3117723,9.34462989 C16.698667,9.78221253 16.2174698,8.0585985 16.466891,6.98210825 C17.0760019,4.40589407 18.9132827,1.81327161 19.8260438,0.93063752 Z" id="形状结合"></path>
            </g>
        </g>
    </g>
</svg>